<?xml version="1.0" encoding="utf-8"?>
<!-- Generator: Adobe Illustrator 19.0.1, SVG Export Plug-In . SVG Version: 6.00 Build 0)  -->
<svg version="1.1" id="Layer_1" xmlns="http://www.w3.org/2000/svg" xmlns:xlink="http://www.w3.org/1999/xlink" x="0px" y="0px"
	 viewBox="-2 0 50 56" style="enable-background:new -2 0 50 56;" xml:space="preserve">
<style type="text/css">
	.st0{fill:#45B648;}
</style>
<g>
	
		<image style="overflow:visible;opacity:0.32;enable-background:new    ;" width="50" height="57" xlink:href="7891ED9F.png"  transform="matrix(0.9814 0 0 0.9814 -1.0128 1.0286)">
	</image>
	<g>
		<path class="st0" d="M39,3H7C4.3,3,2,5.2,2,8v31.7c0,2.8,2.2,5,5,5h10.3L23,52l5.7-7.3H39c2.8,0,5-2.2,5-5V8C44,5.2,41.8,3,39,3z
			 M40,36.8c0,2.2-1.8,4-4,4H10c-2.2,0-4-1.8-4-4v-26c0-2.2,1.8-4,4-4h26c2.2,0,4,1.8,4,4V36.8z"/>
	</g>
</g>
<path class="st0" d="M-34,9c-5.5,0-10,4.5-10,10s4.5,10,10,10c5.5,0,10-4.5,10-10S-28.5,9-34,9z M-29,22.6l-1.4,1.4l-3.6-3.6
	l-3.6,3.6l-1.4-1.4l3.6-3.6l-3.6-3.6l1.4-1.4l3.6,3.6l3.6-3.6l1.4,1.4l-3.6,3.6L-29,22.6z"/>
</svg>
