<?xml version="1.0" encoding="utf-8"?>
<!-- Generator: Adobe Illustrator 19.0.1, SVG Export Plug-In . SVG Version: 6.00 Build 0)  -->
<svg version="1.1" id="Layer_1" xmlns="http://www.w3.org/2000/svg" xmlns:xlink="http://www.w3.org/1999/xlink" x="0px" y="0px"
	 viewBox="0 0 50 56" style="enable-background:new 0 0 50 56;" xml:space="preserve">
<style type="text/css">
	.st0{fill-rule:evenodd;clip-rule:evenodd;fill:#FFFFFF;}
</style>
<g>
	
		<image style="overflow:visible;opacity:0.32;" width="49" height="56" xlink:href="7891ED9F.png"  transform="matrix(1 0 0 1 1.0219 0.9982)">
	</image>
	<g>
		<path class="st0" d="M41,3H9C6.3,3,4,5.2,4,8v31.7c0,2.8,2.2,5,5,5h10.3L25,52l5.7-7.3H41c2.8,0,5-2.2,5-5V8C46,5.2,43.8,3,41,3z
			 M42,36.8c0,2.2-1.8,4-4,4H12c-2.2,0-4-1.8-4-4v-26c0-2.2,1.8-4,4-4h26c2.2,0,4,1.8,4,4V36.8z"/>
	</g>
</g>
</svg>
