<?xml version="1.0" encoding="utf-8"?>
<!-- Generator: Adobe Illustrator 19.0.1, SVG Export Plug-In . SVG Version: 6.00 Build 0)  -->
<svg version="1.1" id="Layer_1" xmlns="http://www.w3.org/2000/svg" xmlns:xlink="http://www.w3.org/1999/xlink" x="0px" y="0px"
	 viewBox="-1 -1.3 48 66" style="enable-background:new -1 -1.3 48 66;" xml:space="preserve">
<style type="text/css">
	.st0{fill:#45B648;}
	.st1{fill-rule:evenodd;clip-rule:evenodd;fill:#FFFFFF;}
</style>
<path class="st0" d="M-34,9c-5.5,0-10,4.5-10,10s4.5,10,10,10c5.5,0,10-4.5,10-10S-28.5,9-34,9z M-29,22.6l-1.4,1.4l-3.6-3.6
	l-3.6,3.6l-1.4-1.4l3.6-3.6l-3.6-3.6l1.4-1.4l3.6,3.6l3.6-3.6l1.4,1.4l-3.6,3.6L-29,22.6z"/>
<g>
	
		<image style="overflow:visible;opacity:0.33;" width="48" height="66" xlink:href="F53BC197.png"  transform="matrix(1 0 0 1 -1 -1)">
	</image>
	<g>
		<path class="st1" d="M44,23.3c0-11.6-9.4-21.1-21-21.1c-11.6,0-21,9.4-21,21.1c0,3.3,0.8,6.4,2.1,9.2c0,0,0,0,0,0l0.1,0.1
			c0.9,1.8,2,3.5,3.4,4.9l16.2,23.7l17.1-26.8c0,0,0,0,0,0C42.8,31.2,44,27.4,44,23.3z M23,40.4c-9.4,0-17-7.6-17-17
			c0-9.4,7.6-17,17-17s17,7.6,17,17C40,32.8,32.4,40.4,23,40.4z"/>
	</g>
</g>
</svg>
