<?xml version="1.0" encoding="utf-8"?>
<!-- Generator: Adobe Illustrator 19.0.1, SVG Export Plug-In . SVG Version: 6.00 Build 0)  -->
<svg version="1.1" id="Layer_1" xmlns="http://www.w3.org/2000/svg" xmlns:xlink="http://www.w3.org/1999/xlink" x="0px" y="0px"
	 viewBox="-2 4 50 50" style="enable-background:new -2 4 50 50;" xml:space="preserve">
<style type="text/css">
	.st0{fill:#45B648;}
</style>
<g>
	
		<image style="overflow:visible;opacity:0.33;enable-background:new    ;" width="53" height="53" xlink:href="EA85E1AE.png"  transform="matrix(1 0 0 1 -3.1071 3)">
	</image>
	<g>
		<path class="st0" d="M23,6C10.3,6,0,16.3,0,29s10.3,23,23,23s23-10.3,23-23S35.7,6,23,6z M23,48C12.5,48,4,39.5,4,29s8.5-19,19-19
			s19,8.5,19,19S33.5,48,23,48z"/>
	</g>
</g>
<path class="st0" d="M70.9,30.7c-5.5,0-10,4.5-10,10s4.5,10,10,10c5.5,0,10-4.5,10-10S76.4,30.7,70.9,30.7z M75.9,44.3l-1.4,1.4
	l-3.6-3.6l-3.6,3.6l-1.4-1.4l3.6-3.6l-3.6-3.6l1.4-1.4l3.6,3.6l3.6-3.6l1.4,1.4l-3.6,3.6L75.9,44.3z"/>
</svg>
